# Vectary OBJ Export units=mm
mtllib Project Name.mtl
o 000_Sphere_-_baked
g Sphere_-_baked
usemtl Sphere material_1e27a181-a187-4058-a53b-aa0be750bf79
v -0.691 0.428 0.000
v -0.641 0.438 -0.036
v -0.630 0.438 0.000
v -0.672 0.438 -0.059
v -0.710 0.438 -0.059
v -0.741 0.438 -0.036
v -0.753 0.438 0.000
v -0.741 0.438 0.036
v -0.710 0.438 0.059
v -0.672 0.438 0.059
v -0.641 0.438 0.036
v -0.596 0.467 -0.069
v -0.574 0.467 0.000
v -0.655 0.467 -0.112
v -0.728 0.467 -0.112
v -0.786 0.467 -0.069
v -0.809 0.467 0.000
v -0.786 0.467 0.069
v -0.728 0.467 0.112
v -0.655 0.467 0.112
v -0.596 0.467 0.069
v -0.560 0.511 -0.095
v -0.530 0.511 0.000
v -0.641 0.511 -0.154
v -0.741 0.511 -0.154
v -0.822 0.511 -0.095
v -0.853 0.511 0.000
v -0.822 0.511 0.095
v -0.741 0.511 0.154
v -0.641 0.511 0.154
v -0.560 0.511 0.095
v -0.537 0.567 -0.112
v -0.501 0.567 0.000
v -0.633 0.567 -0.181
v -0.750 0.567 -0.181
v -0.845 0.567 -0.112
v -0.882 0.567 0.000
v -0.845 0.567 0.112
v -0.750 0.567 0.181
v -0.633 0.567 0.181
v -0.537 0.567 0.112
v -0.530 0.628 -0.118
v -0.491 0.628 0.000
v -0.630 0.628 -0.190
v -0.753 0.628 -0.190
v -0.853 0.628 -0.118
v -0.891 0.628 0.000
v -0.853 0.628 0.118
v -0.753 0.628 0.190
v -0.630 0.628 0.190
v -0.530 0.628 0.118
v -0.537 0.690 -0.112
v -0.501 0.690 0.000
v -0.633 0.690 -0.181
v -0.750 0.690 -0.181
v -0.845 0.690 -0.112
v -0.882 0.690 0.000
v -0.845 0.690 0.112
v -0.750 0.690 0.181
v -0.633 0.690 0.181
v -0.537 0.690 0.112
v -0.560 0.746 -0.095
v -0.530 0.746 0.000
v -0.641 0.746 -0.154
v -0.741 0.746 -0.154
v -0.822 0.746 -0.095
v -0.853 0.746 0.000
v -0.822 0.746 0.095
v -0.741 0.746 0.154
v -0.641 0.746 0.154
v -0.560 0.746 0.095
v -0.596 0.790 -0.069
v -0.574 0.790 0.000
v -0.655 0.790 -0.112
v -0.728 0.790 -0.112
v -0.786 0.790 -0.069
v -0.809 0.790 0.000
v -0.786 0.790 0.069
v -0.728 0.790 0.112
v -0.655 0.790 0.112
v -0.596 0.790 0.069
v -0.641 0.819 -0.036
v -0.630 0.819 0.000
v -0.672 0.819 -0.059
v -0.710 0.819 -0.059
v -0.741 0.819 -0.036
v -0.753 0.819 0.000
v -0.741 0.819 0.036
v -0.710 0.819 0.059
v -0.672 0.819 0.059
v -0.641 0.819 0.036
v -0.691 0.828 0.000
vn -0.00000 -1.00000 -0.00000
vn 0.31679 -0.93299 -0.17081
vn 0.35669 -0.93299 0.04801
vn -0.00000 -1.00000 -0.00000
vn 0.15589 -0.93299 -0.32439
vn 0.31679 -0.93299 -0.17081
vn -0.00000 -1.00000 -0.00000
vn -0.06456 -0.93299 -0.35407
vn 0.15589 -0.93299 -0.32439
vn -0.00000 -1.00000 -0.00000
vn -0.26034 -0.93299 -0.24850
vn -0.06456 -0.93299 -0.35407
vn -0.00000 -1.00000 -0.00000
vn -0.35669 -0.93299 -0.04801
vn -0.26034 -0.93299 -0.24850
vn -0.00000 -1.00000 -0.00000
vn -0.31679 -0.93299 0.17081
vn -0.35669 -0.93299 -0.04801
vn -0.00000 -1.00000 -0.00000
vn -0.15589 -0.93299 0.32439
vn -0.31679 -0.93299 0.17081
vn -0.00000 -1.00000 -0.00000
vn 0.06456 -0.93299 0.35407
vn -0.15589 -0.93299 0.32439
vn -0.00000 -1.00000 -0.00000
vn 0.26034 -0.93299 0.24850
vn 0.06456 -0.93299 0.35407
vn -0.00000 -1.00000 -0.00000
vn 0.35669 -0.93299 0.04801
vn 0.26034 -0.93299 0.24850
vn 0.31679 -0.93299 -0.17081
vn 0.51397 -0.79473 -0.32287
vn 0.60559 -0.79473 0.04090
vn 0.31679 -0.93299 -0.17081
vn 0.60559 -0.79473 0.04090
vn 0.35669 -0.93299 0.04801
vn 0.15589 -0.93299 -0.32439
vn 0.22603 -0.79473 -0.56331
vn 0.51397 -0.79473 -0.32287
vn 0.15589 -0.93299 -0.32439
vn 0.51397 -0.79473 -0.32287
vn 0.31679 -0.93299 -0.17081
vn -0.06456 -0.93299 -0.35407
vn -0.14824 -0.79473 -0.58859
vn 0.22603 -0.79473 -0.56331
vn -0.06456 -0.93299 -0.35407
vn 0.22603 -0.79473 -0.56331
vn 0.15589 -0.93299 -0.32439
vn -0.26034 -0.93299 -0.24850
vn -0.46589 -0.79473 -0.38904
vn -0.14824 -0.79473 -0.58859
vn -0.26034 -0.93299 -0.24850
vn -0.14824 -0.79473 -0.58859
vn -0.06456 -0.93299 -0.35407
vn -0.35669 -0.93299 -0.04801
vn -0.60559 -0.79473 -0.04090
vn -0.46589 -0.79473 -0.38904
vn -0.35669 -0.93299 -0.04801
vn -0.46589 -0.79473 -0.38904
vn -0.26034 -0.93299 -0.24850
vn -0.31679 -0.93299 0.17081
vn -0.51397 -0.79473 0.32287
vn -0.60559 -0.79473 -0.04090
vn -0.31679 -0.93299 0.17081
vn -0.60559 -0.79473 -0.04090
vn -0.35669 -0.93299 -0.04801
vn -0.15589 -0.93299 0.32439
vn -0.22603 -0.79473 0.56331
vn -0.51397 -0.79473 0.32287
vn -0.15589 -0.93299 0.32439
vn -0.51397 -0.79473 0.32287
vn -0.31679 -0.93299 0.17081
vn 0.06456 -0.93299 0.35407
vn 0.14824 -0.79473 0.58859
vn -0.22603 -0.79473 0.56331
vn 0.06456 -0.93299 0.35407
vn -0.22603 -0.79473 0.56331
vn -0.15589 -0.93299 0.32439
vn 0.26034 -0.93299 0.24850
vn 0.46589 -0.79473 0.38904
vn 0.14824 -0.79473 0.58859
vn 0.26034 -0.93299 0.24850
vn 0.14824 -0.79473 0.58859
vn 0.06456 -0.93299 0.35407
vn 0.35669 -0.93299 0.04801
vn 0.60559 -0.79473 0.04090
vn 0.46589 -0.79473 0.38904
vn 0.35669 -0.93299 0.04801
vn 0.46589 -0.79473 0.38904
vn 0.26034 -0.93299 0.24850
vn 0.51397 -0.79473 -0.32287
vn 0.67737 -0.57774 -0.45539
vn 0.81568 -0.57774 0.02973
vn 0.51397 -0.79473 -0.32287
vn 0.81568 -0.57774 0.02973
vn 0.60559 -0.79473 0.04090
vn 0.22603 -0.79473 -0.56331
vn 0.28034 -0.57774 -0.76657
vn 0.67737 -0.57774 -0.45539
vn 0.22603 -0.79473 -0.56331
vn 0.67737 -0.57774 -0.45539
vn 0.51397 -0.79473 -0.32287
vn -0.14824 -0.79473 -0.58859
vn -0.22378 -0.57774 -0.78495
vn 0.28034 -0.57774 -0.76657
vn -0.14824 -0.79473 -0.58859
vn 0.28034 -0.57774 -0.76657
vn 0.22603 -0.79473 -0.56331
vn -0.46589 -0.79473 -0.38904
vn -0.64242 -0.57774 -0.50350
vn -0.22378 -0.57774 -0.78495
vn -0.46589 -0.79473 -0.38904
vn -0.22378 -0.57774 -0.78495
vn -0.14824 -0.79473 -0.58859
vn -0.60559 -0.79473 -0.04090
vn -0.81568 -0.57774 -0.02973
vn -0.64242 -0.57774 -0.50350
vn -0.60559 -0.79473 -0.04090
vn -0.64242 -0.57774 -0.50350
vn -0.46589 -0.79473 -0.38904
vn -0.51397 -0.79473 0.32287
vn -0.67737 -0.57774 0.45539
vn -0.81568 -0.57774 -0.02973
vn -0.51397 -0.79473 0.32287
vn -0.81568 -0.57774 -0.02973
vn -0.60559 -0.79473 -0.04090
vn -0.22603 -0.79473 0.56331
vn -0.28034 -0.57774 0.76657
vn -0.67737 -0.57774 0.45539
vn -0.22603 -0.79473 0.56331
vn -0.67737 -0.57774 0.45539
vn -0.51397 -0.79473 0.32287
vn 0.14824 -0.79473 0.58859
vn 0.22378 -0.57774 0.78495
vn -0.28034 -0.57774 0.76657
vn 0.14824 -0.79473 0.58859
vn -0.28034 -0.57774 0.76657
vn -0.22603 -0.79473 0.56331
vn 0.46589 -0.79473 0.38904
vn 0.64242 -0.57774 0.50350
vn 0.22378 -0.57774 0.78495
vn 0.46589 -0.79473 0.38904
vn 0.22378 -0.57774 0.78495
vn 0.14824 -0.79473 0.58859
vn 0.60559 -0.79473 0.04090
vn 0.81568 -0.57774 0.02973
vn 0.64242 -0.57774 0.50350
vn 0.60559 -0.79473 0.04090
vn 0.64242 -0.57774 0.50350
vn 0.46589 -0.79473 0.38904
vn 0.67737 -0.57774 -0.45539
vn 0.77985 -0.30385 -0.54727
vn 0.95259 -0.30385 0.01564
vn 0.67737 -0.57774 -0.45539
vn 0.95259 -0.30385 0.01564
vn 0.81568 -0.57774 0.02973
vn 0.28034 -0.57774 -0.76657
vn 0.30924 -0.30385 -0.90114
vn 0.77985 -0.30385 -0.54727
vn 0.28034 -0.57774 -0.76657
vn 0.77985 -0.30385 -0.54727
vn 0.67737 -0.57774 -0.45539
vn -0.22378 -0.57774 -0.78495
vn -0.27950 -0.30385 -0.91080
vn 0.30924 -0.30385 -0.90114
vn -0.22378 -0.57774 -0.78495
vn 0.30924 -0.30385 -0.90114
vn 0.28034 -0.57774 -0.76657
vn -0.64242 -0.57774 -0.50350
vn -0.76147 -0.30385 -0.57257
vn -0.27950 -0.30385 -0.91080
vn -0.64242 -0.57774 -0.50350
vn -0.27950 -0.30385 -0.91080
vn -0.22378 -0.57774 -0.78495
vn -0.81568 -0.57774 -0.02973
vn -0.95259 -0.30385 -0.01564
vn -0.76147 -0.30385 -0.57257
vn -0.81568 -0.57774 -0.02973
vn -0.76147 -0.30385 -0.57257
vn -0.64242 -0.57774 -0.50350
vn -0.67737 -0.57774 0.45539
vn -0.77985 -0.30385 0.54727
vn -0.95259 -0.30385 -0.01564
vn -0.67737 -0.57774 0.45539
vn -0.95259 -0.30385 -0.01564
vn -0.81568 -0.57774 -0.02973
vn -0.28034 -0.57774 0.76657
vn -0.30924 -0.30385 0.90114
vn -0.77985 -0.30385 0.54727
vn -0.28034 -0.57774 0.76657
vn -0.77985 -0.30385 0.54727
vn -0.67737 -0.57774 0.45539
vn 0.22378 -0.57774 0.78495
vn 0.27950 -0.30385 0.91080
vn -0.30924 -0.30385 0.90114
vn 0.22378 -0.57774 0.78495
vn -0.30924 -0.30385 0.90114
vn -0.28034 -0.57774 0.76657
vn 0.64242 -0.57774 0.50350
vn 0.76147 -0.30385 0.57257
vn 0.27950 -0.30385 0.91080
vn 0.64242 -0.57774 0.50350
vn 0.27950 -0.30385 0.91080
vn 0.22378 -0.57774 0.78495
vn 0.81568 -0.57774 0.02973
vn 0.95259 -0.30385 0.01564
vn 0.76147 -0.30385 0.57257
vn 0.81568 -0.57774 0.02973
vn 0.76147 -0.30385 0.57257
vn 0.64242 -0.57774 0.50350
vn 0.77985 -0.30385 -0.54727
vn 0.80902 -0.00000 -0.58779
vn 1.00000 -0.00000 0.00000
vn 0.77985 -0.30385 -0.54727
vn 1.00000 -0.00000 0.00000
vn 0.95259 -0.30385 0.01564
vn 0.30924 -0.30385 -0.90114
vn 0.30902 -0.00000 -0.95106
vn 0.80902 -0.00000 -0.58779
vn 0.30924 -0.30385 -0.90114
vn 0.80902 -0.00000 -0.58779
vn 0.77985 -0.30385 -0.54727
vn -0.27950 -0.30385 -0.91080
vn -0.30902 0.00000 -0.95106
vn 0.30902 -0.00000 -0.95106
vn -0.27950 -0.30385 -0.91080
vn 0.30902 -0.00000 -0.95106
vn 0.30924 -0.30385 -0.90114
vn -0.76147 -0.30385 -0.57257
vn -0.80902 0.00000 -0.58779
vn -0.30902 0.00000 -0.95106
vn -0.76147 -0.30385 -0.57257
vn -0.30902 0.00000 -0.95106
vn -0.27950 -0.30385 -0.91080
vn -0.95259 -0.30385 -0.01564
vn -1.00000 -0.00000 -0.00000
vn -0.80902 0.00000 -0.58779
vn -0.95259 -0.30385 -0.01564
vn -0.80902 0.00000 -0.58779
vn -0.76147 -0.30385 -0.57257
vn -0.77985 -0.30385 0.54727
vn -0.80902 -0.00000 0.58779
vn -1.00000 -0.00000 -0.00000
vn -0.77985 -0.30385 0.54727
vn -1.00000 -0.00000 -0.00000
vn -0.95259 -0.30385 -0.01564
vn -0.30924 -0.30385 0.90114
vn -0.30902 -0.00000 0.95106
vn -0.80902 -0.00000 0.58779
vn -0.30924 -0.30385 0.90114
vn -0.80902 -0.00000 0.58779
vn -0.77985 -0.30385 0.54727
vn 0.27950 -0.30385 0.91080
vn 0.30902 0.00000 0.95106
vn -0.30902 -0.00000 0.95106
vn 0.27950 -0.30385 0.91080
vn -0.30902 -0.00000 0.95106
vn -0.30924 -0.30385 0.90114
vn 0.76147 -0.30385 0.57257
vn 0.80902 0.00000 0.58779
vn 0.30902 0.00000 0.95106
vn 0.76147 -0.30385 0.57257
vn 0.30902 0.00000 0.95106
vn 0.27950 -0.30385 0.91080
vn 0.95259 -0.30385 0.01564
vn 1.00000 -0.00000 0.00000
vn 0.80902 0.00000 0.58779
vn 0.95259 -0.30385 0.01564
vn 0.80902 0.00000 0.58779
vn 0.76147 -0.30385 0.57257
vn 0.80902 -0.00000 -0.58779
vn 0.76147 0.30385 -0.57257
vn 0.95259 0.30385 -0.01564
vn 0.80902 -0.00000 -0.58779
vn 0.95259 0.30385 -0.01564
vn 1.00000 -0.00000 0.00000
vn 0.30902 -0.00000 -0.95106
vn 0.27950 0.30385 -0.91080
vn 0.76147 0.30385 -0.57257
vn 0.30902 -0.00000 -0.95106
vn 0.76147 0.30385 -0.57257
vn 0.80902 -0.00000 -0.58779
vn -0.30902 0.00000 -0.95106
vn -0.30924 0.30385 -0.90114
vn 0.27950 0.30385 -0.91080
vn -0.30902 0.00000 -0.95106
vn 0.27950 0.30385 -0.91080
vn 0.30902 -0.00000 -0.95106
vn -0.80902 0.00000 -0.58779
vn -0.77985 0.30385 -0.54727
vn -0.30924 0.30385 -0.90114
vn -0.80902 0.00000 -0.58779
vn -0.30924 0.30385 -0.90114
vn -0.30902 0.00000 -0.95106
vn -1.00000 -0.00000 -0.00000
vn -0.95259 0.30385 0.01564
vn -0.77985 0.30385 -0.54727
vn -1.00000 -0.00000 -0.00000
vn -0.77985 0.30385 -0.54727
vn -0.80902 0.00000 -0.58779
vn -0.80902 -0.00000 0.58779
vn -0.76147 0.30385 0.57257
vn -0.95259 0.30385 0.01564
vn -0.80902 -0.00000 0.58779
vn -0.95259 0.30385 0.01564
vn -1.00000 -0.00000 -0.00000
vn -0.30902 -0.00000 0.95106
vn -0.27950 0.30385 0.91080
vn -0.76147 0.30385 0.57257
vn -0.30902 -0.00000 0.95106
vn -0.76147 0.30385 0.57257
vn -0.80902 -0.00000 0.58779
vn 0.30902 0.00000 0.95106
vn 0.30924 0.30385 0.90114
vn -0.27950 0.30385 0.91080
vn 0.30902 0.00000 0.95106
vn -0.27950 0.30385 0.91080
vn -0.30902 -0.00000 0.95106
vn 0.80902 0.00000 0.58779
vn 0.77985 0.30385 0.54727
vn 0.30924 0.30385 0.90114
vn 0.80902 0.00000 0.58779
vn 0.30924 0.30385 0.90114
vn 0.30902 0.00000 0.95106
vn 1.00000 0.00000 0.00000
vn 0.95259 0.30385 -0.01564
vn 0.77985 0.30385 0.54727
vn 1.00000 0.00000 0.00000
vn 0.77985 0.30385 0.54727
vn 0.80902 0.00000 0.58779
vn 0.76147 0.30385 -0.57257
vn 0.64242 0.57774 -0.50350
vn 0.81568 0.57774 -0.02973
vn 0.76147 0.30385 -0.57257
vn 0.81568 0.57774 -0.02973
vn 0.95259 0.30385 -0.01564
vn 0.27950 0.30385 -0.91080
vn 0.22378 0.57774 -0.78495
vn 0.64242 0.57774 -0.50350
vn 0.27950 0.30385 -0.91080
vn 0.64242 0.57774 -0.50350
vn 0.76147 0.30385 -0.57257
vn -0.30924 0.30385 -0.90114
vn -0.28034 0.57774 -0.76657
vn 0.22378 0.57774 -0.78495
vn -0.30924 0.30385 -0.90114
vn 0.22378 0.57774 -0.78495
vn 0.27950 0.30385 -0.91080
vn -0.77985 0.30385 -0.54727
vn -0.67737 0.57774 -0.45539
vn -0.28034 0.57774 -0.76657
vn -0.77985 0.30385 -0.54727
vn -0.28034 0.57774 -0.76657
vn -0.30924 0.30385 -0.90114
vn -0.95259 0.30385 0.01564
vn -0.81568 0.57774 0.02973
vn -0.67737 0.57774 -0.45539
vn -0.95259 0.30385 0.01564
vn -0.67737 0.57774 -0.45539
vn -0.77985 0.30385 -0.54727
vn -0.76147 0.30385 0.57257
vn -0.64242 0.57774 0.50350
vn -0.81568 0.57774 0.02973
vn -0.76147 0.30385 0.57257
vn -0.81568 0.57774 0.02973
vn -0.95259 0.30385 0.01564
vn -0.27950 0.30385 0.91080
vn -0.22378 0.57774 0.78495
vn -0.64242 0.57774 0.50350
vn -0.27950 0.30385 0.91080
vn -0.64242 0.57774 0.50350
vn -0.76147 0.30385 0.57257
vn 0.30924 0.30385 0.90114
vn 0.28034 0.57774 0.76657
vn -0.22378 0.57774 0.78495
vn 0.30924 0.30385 0.90114
vn -0.22378 0.57774 0.78495
vn -0.27950 0.30385 0.91080
vn 0.77985 0.30385 0.54727
vn 0.67737 0.57774 0.45539
vn 0.28034 0.57774 0.76657
vn 0.77985 0.30385 0.54727
vn 0.28034 0.57774 0.76657
vn 0.30924 0.30385 0.90114
vn 0.95259 0.30385 -0.01564
vn 0.81568 0.57774 -0.02973
vn 0.67737 0.57774 0.45539
vn 0.95259 0.30385 -0.01564
vn 0.67737 0.57774 0.45539
vn 0.77985 0.30385 0.54727
vn 0.64242 0.57774 -0.50350
vn 0.46589 0.79473 -0.38904
vn 0.60559 0.79473 -0.04090
vn 0.64242 0.57774 -0.50350
vn 0.60559 0.79473 -0.04090
vn 0.81568 0.57774 -0.02973
vn 0.22378 0.57774 -0.78495
vn 0.14824 0.79473 -0.58859
vn 0.46589 0.79473 -0.38904
vn 0.22378 0.57774 -0.78495
vn 0.46589 0.79473 -0.38904
vn 0.64242 0.57774 -0.50350
vn -0.28034 0.57774 -0.76657
vn -0.22603 0.79473 -0.56331
vn 0.14824 0.79473 -0.58859
vn -0.28034 0.57774 -0.76657
vn 0.14824 0.79473 -0.58859
vn 0.22378 0.57774 -0.78495
vn -0.67737 0.57774 -0.45539
vn -0.51397 0.79473 -0.32287
vn -0.22603 0.79473 -0.56331
vn -0.67737 0.57774 -0.45539
vn -0.22603 0.79473 -0.56331
vn -0.28034 0.57774 -0.76657
vn -0.81568 0.57774 0.02973
vn -0.60559 0.79473 0.04090
vn -0.51397 0.79473 -0.32287
vn -0.81568 0.57774 0.02973
vn -0.51397 0.79473 -0.32287
vn -0.67737 0.57774 -0.45539
vn -0.64242 0.57774 0.50350
vn -0.46589 0.79473 0.38904
vn -0.60559 0.79473 0.04090
vn -0.64242 0.57774 0.50350
vn -0.60559 0.79473 0.04090
vn -0.81568 0.57774 0.02973
vn -0.22378 0.57774 0.78495
vn -0.14824 0.79473 0.58859
vn -0.46589 0.79473 0.38904
vn -0.22378 0.57774 0.78495
vn -0.46589 0.79473 0.38904
vn -0.64242 0.57774 0.50350
vn 0.28034 0.57774 0.76657
vn 0.22603 0.79473 0.56331
vn -0.14824 0.79473 0.58859
vn 0.28034 0.57774 0.76657
vn -0.14824 0.79473 0.58859
vn -0.22378 0.57774 0.78495
vn 0.67737 0.57774 0.45539
vn 0.51397 0.79473 0.32287
vn 0.22603 0.79473 0.56331
vn 0.67737 0.57774 0.45539
vn 0.22603 0.79473 0.56331
vn 0.28034 0.57774 0.76657
vn 0.81568 0.57774 -0.02973
vn 0.60559 0.79473 -0.04090
vn 0.51397 0.79473 0.32287
vn 0.81568 0.57774 -0.02973
vn 0.51397 0.79473 0.32287
vn 0.67737 0.57774 0.45539
vn 0.46589 0.79473 -0.38904
vn 0.26034 0.93299 -0.24850
vn 0.35669 0.93299 -0.04801
vn 0.46589 0.79473 -0.38904
vn 0.35669 0.93299 -0.04801
vn 0.60559 0.79473 -0.04090
vn 0.14824 0.79473 -0.58859
vn 0.06456 0.93299 -0.35407
vn 0.26034 0.93299 -0.24850
vn 0.14824 0.79473 -0.58859
vn 0.26034 0.93299 -0.24850
vn 0.46589 0.79473 -0.38904
vn -0.22603 0.79473 -0.56331
vn -0.15589 0.93299 -0.32439
vn 0.06456 0.93299 -0.35407
vn -0.22603 0.79473 -0.56331
vn 0.06456 0.93299 -0.35407
vn 0.14824 0.79473 -0.58859
vn -0.51397 0.79473 -0.32287
vn -0.31679 0.93299 -0.17081
vn -0.15589 0.93299 -0.32439
vn -0.51397 0.79473 -0.32287
vn -0.15589 0.93299 -0.32439
vn -0.22603 0.79473 -0.56331
vn -0.60559 0.79473 0.04090
vn -0.35669 0.93299 0.04801
vn -0.31679 0.93299 -0.17081
vn -0.60559 0.79473 0.04090
vn -0.31679 0.93299 -0.17081
vn -0.51397 0.79473 -0.32287
vn -0.46589 0.79473 0.38904
vn -0.26034 0.93299 0.24850
vn -0.35669 0.93299 0.04801
vn -0.46589 0.79473 0.38904
vn -0.35669 0.93299 0.04801
vn -0.60559 0.79473 0.04090
vn -0.14824 0.79473 0.58859
vn -0.06456 0.93299 0.35407
vn -0.26034 0.93299 0.24850
vn -0.14824 0.79473 0.58859
vn -0.26034 0.93299 0.24850
vn -0.46589 0.79473 0.38904
vn 0.22603 0.79473 0.56331
vn 0.15589 0.93299 0.32439
vn -0.06456 0.93299 0.35407
vn 0.22603 0.79473 0.56331
vn -0.06456 0.93299 0.35407
vn -0.14824 0.79473 0.58859
vn 0.51397 0.79473 0.32287
vn 0.31679 0.93299 0.17081
vn 0.15589 0.93299 0.32439
vn 0.51397 0.79473 0.32287
vn 0.15589 0.93299 0.32439
vn 0.22603 0.79473 0.56331
vn 0.60559 0.79473 -0.04090
vn 0.35669 0.93299 -0.04801
vn 0.31679 0.93299 0.17081
vn 0.60559 0.79473 -0.04090
vn 0.31679 0.93299 0.17081
vn 0.51397 0.79473 0.32287
vn 0.35669 0.93299 -0.04801
vn 0.26034 0.93299 -0.24850
vn 0.00000 1.00000 0.00000
vn 0.26034 0.93299 -0.24850
vn 0.06456 0.93299 -0.35407
vn 0.00000 1.00000 0.00000
vn 0.06456 0.93299 -0.35407
vn -0.15589 0.93299 -0.32439
vn 0.00000 1.00000 0.00000
vn -0.15589 0.93299 -0.32439
vn -0.31679 0.93299 -0.17081
vn 0.00000 1.00000 0.00000
vn -0.31679 0.93299 -0.17081
vn -0.35669 0.93299 0.04801
vn 0.00000 1.00000 0.00000
vn -0.35669 0.93299 0.04801
vn -0.26034 0.93299 0.24850
vn 0.00000 1.00000 0.00000
vn -0.26034 0.93299 0.24850
vn -0.06456 0.93299 0.35407
vn 0.00000 1.00000 0.00000
vn -0.06456 0.93299 0.35407
vn 0.15589 0.93299 0.32439
vn 0.00000 1.00000 0.00000
vn 0.15589 0.93299 0.32439
vn 0.31679 0.93299 0.17081
vn 0.00000 1.00000 0.00000
vn 0.31679 0.93299 0.17081
vn 0.35669 0.93299 -0.04801
vn 0.00000 1.00000 0.00000
f 1//1 2//2 3//3 
f 1//4 4//5 2//6 
f 1//7 5//8 4//9 
f 1//10 6//11 5//12 
f 1//13 7//14 6//15 
f 1//16 8//17 7//18 
f 1//19 9//20 8//21 
f 1//22 10//23 9//24 
f 1//25 11//26 10//27 
f 1//28 3//29 11//30 
f 2//31 12//32 13//33 
f 2//34 13//35 3//36 
f 4//37 14//38 12//39 
f 4//40 12//41 2//42 
f 5//43 15//44 14//45 
f 5//46 14//47 4//48 
f 6//49 16//50 15//51 
f 6//52 15//53 5//54 
f 7//55 17//56 16//57 
f 7//58 16//59 6//60 
f 8//61 18//62 17//63 
f 8//64 17//65 7//66 
f 9//67 19//68 18//69 
f 9//70 18//71 8//72 
f 10//73 20//74 19//75 
f 10//76 19//77 9//78 
f 11//79 21//80 20//81 
f 11//82 20//83 10//84 
f 3//85 13//86 21//87 
f 3//88 21//89 11//90 
f 12//91 22//92 23//93 
f 12//94 23//95 13//96 
f 14//97 24//98 22//99 
f 14//100 22//101 12//102 
f 15//103 25//104 24//105 
f 15//106 24//107 14//108 
f 16//109 26//110 25//111 
f 16//112 25//113 15//114 
f 17//115 27//116 26//117 
f 17//118 26//119 16//120 
f 18//121 28//122 27//123 
f 18//124 27//125 17//126 
f 19//127 29//128 28//129 
f 19//130 28//131 18//132 
f 20//133 30//134 29//135 
f 20//136 29//137 19//138 
f 21//139 31//140 30//141 
f 21//142 30//143 20//144 
f 13//145 23//146 31//147 
f 13//148 31//149 21//150 
f 22//151 32//152 33//153 
f 22//154 33//155 23//156 
f 24//157 34//158 32//159 
f 24//160 32//161 22//162 
f 25//163 35//164 34//165 
f 25//166 34//167 24//168 
f 26//169 36//170 35//171 
f 26//172 35//173 25//174 
f 27//175 37//176 36//177 
f 27//178 36//179 26//180 
f 28//181 38//182 37//183 
f 28//184 37//185 27//186 
f 29//187 39//188 38//189 
f 29//190 38//191 28//192 
f 30//193 40//194 39//195 
f 30//196 39//197 29//198 
f 31//199 41//200 40//201 
f 31//202 40//203 30//204 
f 23//205 33//206 41//207 
f 23//208 41//209 31//210 
f 32//211 42//212 43//213 
f 32//214 43//215 33//216 
f 34//217 44//218 42//219 
f 34//220 42//221 32//222 
f 35//223 45//224 44//225 
f 35//226 44//227 34//228 
f 36//229 46//230 45//231 
f 36//232 45//233 35//234 
f 37//235 47//236 46//237 
f 37//238 46//239 36//240 
f 38//241 48//242 47//243 
f 38//244 47//245 37//246 
f 39//247 49//248 48//249 
f 39//250 48//251 38//252 
f 40//253 50//254 49//255 
f 40//256 49//257 39//258 
f 41//259 51//260 50//261 
f 41//262 50//263 40//264 
f 33//265 43//266 51//267 
f 33//268 51//269 41//270 
f 42//271 52//272 53//273 
f 42//274 53//275 43//276 
f 44//277 54//278 52//279 
f 44//280 52//281 42//282 
f 45//283 55//284 54//285 
f 45//286 54//287 44//288 
f 46//289 56//290 55//291 
f 46//292 55//293 45//294 
f 47//295 57//296 56//297 
f 47//298 56//299 46//300 
f 48//301 58//302 57//303 
f 48//304 57//305 47//306 
f 49//307 59//308 58//309 
f 49//310 58//311 48//312 
f 50//313 60//314 59//315 
f 50//316 59//317 49//318 
f 51//319 61//320 60//321 
f 51//322 60//323 50//324 
f 43//325 53//326 61//327 
f 43//328 61//329 51//330 
f 52//331 62//332 63//333 
f 52//334 63//335 53//336 
f 54//337 64//338 62//339 
f 54//340 62//341 52//342 
f 55//343 65//344 64//345 
f 55//346 64//347 54//348 
f 56//349 66//350 65//351 
f 56//352 65//353 55//354 
f 57//355 67//356 66//357 
f 57//358 66//359 56//360 
f 58//361 68//362 67//363 
f 58//364 67//365 57//366 
f 59//367 69//368 68//369 
f 59//370 68//371 58//372 
f 60//373 70//374 69//375 
f 60//376 69//377 59//378 
f 61//379 71//380 70//381 
f 61//382 70//383 60//384 
f 53//385 63//386 71//387 
f 53//388 71//389 61//390 
f 62//391 72//392 73//393 
f 62//394 73//395 63//396 
f 64//397 74//398 72//399 
f 64//400 72//401 62//402 
f 65//403 75//404 74//405 
f 65//406 74//407 64//408 
f 66//409 76//410 75//411 
f 66//412 75//413 65//414 
f 67//415 77//416 76//417 
f 67//418 76//419 66//420 
f 68//421 78//422 77//423 
f 68//424 77//425 67//426 
f 69//427 79//428 78//429 
f 69//430 78//431 68//432 
f 70//433 80//434 79//435 
f 70//436 79//437 69//438 
f 71//439 81//440 80//441 
f 71//442 80//443 70//444 
f 63//445 73//446 81//447 
f 63//448 81//449 71//450 
f 72//451 82//452 83//453 
f 72//454 83//455 73//456 
f 74//457 84//458 82//459 
f 74//460 82//461 72//462 
f 75//463 85//464 84//465 
f 75//466 84//467 74//468 
f 76//469 86//470 85//471 
f 76//472 85//473 75//474 
f 77//475 87//476 86//477 
f 77//478 86//479 76//480 
f 78//481 88//482 87//483 
f 78//484 87//485 77//486 
f 79//487 89//488 88//489 
f 79//490 88//491 78//492 
f 80//493 90//494 89//495 
f 80//496 89//497 79//498 
f 81//499 91//500 90//501 
f 81//502 90//503 80//504 
f 73//505 83//506 91//507 
f 73//508 91//509 81//510 
f 83//511 82//512 92//513 
f 82//514 84//515 92//516 
f 84//517 85//518 92//519 
f 85//520 86//521 92//522 
f 86//523 87//524 92//525 
f 87//526 88//527 92//528 
f 88//529 89//530 92//531 
f 89//532 90//533 92//534 
f 90//535 91//536 92//537 
f 91//538 83//539 92//540 
